<mxfile host="app.diagrams.net" modified="2023-05-15T18:45:28.425Z" agent="Mozilla/5.0 (Windows NT 10.0; Win64; x64) AppleWebKit/537.36 (KHTML, like Gecko) Chrome/113.0.0.0 Safari/537.36 Edg/113.0.1774.42" etag="Y_CUxSUkBPy-RPQr1hSf" version="21.3.2" type="device">
  <diagram id="R2lEEEUBdFMjLlhIrx00" name="Page-1">
    <mxGraphModel dx="3173" dy="2238" grid="1" gridSize="10" guides="1" tooltips="1" connect="1" arrows="1" fold="1" page="1" pageScale="1" pageWidth="850" pageHeight="1100" math="0" shadow="0" extFonts="Permanent Marker^https://fonts.googleapis.com/css?family=Permanent+Marker">
      <root>
        <mxCell id="0" />
        <mxCell id="1" parent="0" />
        <mxCell id="PSpn-6Nec1iFac_MyreH-2" value="" style="rounded=0;whiteSpace=wrap;html=1;movable=1;resizable=1;rotatable=1;deletable=1;editable=1;locked=0;connectable=1;fontSize=20;" parent="1" vertex="1">
          <mxGeometry x="-820" y="80" width="1360" height="500" as="geometry" />
        </mxCell>
        <mxCell id="PSpn-6Nec1iFac_MyreH-3" value="비회원" style="shape=umlActor;verticalLabelPosition=bottom;verticalAlign=top;html=1;outlineConnect=0;movable=1;resizable=1;rotatable=1;deletable=1;editable=1;locked=0;connectable=1;fontSize=24;" parent="1" vertex="1">
          <mxGeometry x="-880" y="120" width="30" height="60" as="geometry" />
        </mxCell>
        <mxCell id="PSpn-6Nec1iFac_MyreH-4" value="회원" style="shape=umlActor;verticalLabelPosition=bottom;verticalAlign=top;html=1;outlineConnect=0;movable=1;resizable=1;rotatable=1;deletable=1;editable=1;locked=0;connectable=1;fontSize=24;" parent="1" vertex="1">
          <mxGeometry x="-880" y="480" width="30" height="60" as="geometry" />
        </mxCell>
        <mxCell id="PSpn-6Nec1iFac_MyreH-5" value="관리자" style="shape=umlActor;verticalLabelPosition=bottom;verticalAlign=top;html=1;outlineConnect=0;movable=1;resizable=1;rotatable=1;deletable=1;editable=1;locked=0;connectable=1;fontSize=24;" parent="1" vertex="1">
          <mxGeometry x="480" y="-40.000000000000014" width="30" height="60" as="geometry" />
        </mxCell>
        <mxCell id="PSpn-6Nec1iFac_MyreH-6" value="회원가입을 한다." style="ellipse;whiteSpace=wrap;html=1;movable=1;resizable=1;rotatable=1;deletable=1;editable=1;locked=0;connectable=1;fontSize=20;" parent="1" vertex="1">
          <mxGeometry x="-780" y="140" width="170" height="40" as="geometry" />
        </mxCell>
        <mxCell id="PSpn-6Nec1iFac_MyreH-8" value="로그인을 한다." style="ellipse;whiteSpace=wrap;html=1;movable=1;resizable=1;rotatable=1;deletable=1;editable=1;locked=0;connectable=1;fontSize=20;" parent="1" vertex="1">
          <mxGeometry x="-790" y="420" width="140" height="40" as="geometry" />
        </mxCell>
        <mxCell id="PSpn-6Nec1iFac_MyreH-9" value="" style="endArrow=classic;html=1;rounded=0;entryX=0;entryY=0.5;entryDx=0;entryDy=0;movable=1;resizable=1;rotatable=1;deletable=1;editable=1;locked=0;connectable=1;fontSize=20;" parent="1" target="PSpn-6Nec1iFac_MyreH-6" edge="1">
          <mxGeometry width="50" height="50" relative="1" as="geometry">
            <mxPoint x="-840" y="160" as="sourcePoint" />
            <mxPoint x="-310" y="250" as="targetPoint" />
          </mxGeometry>
        </mxCell>
        <mxCell id="PSpn-6Nec1iFac_MyreH-10" value="" style="endArrow=classic;html=1;rounded=0;exitX=0.5;exitY=1;exitDx=0;exitDy=0;movable=1;resizable=1;rotatable=1;deletable=1;editable=1;locked=0;connectable=1;fontSize=20;" parent="1" source="PSpn-6Nec1iFac_MyreH-6" edge="1">
          <mxGeometry width="50" height="50" relative="1" as="geometry">
            <mxPoint x="-360" y="300" as="sourcePoint" />
            <mxPoint x="-840" y="530" as="targetPoint" />
          </mxGeometry>
        </mxCell>
        <mxCell id="PSpn-6Nec1iFac_MyreH-11" value="" style="endArrow=classic;html=1;rounded=0;entryX=0;entryY=1;entryDx=0;entryDy=0;movable=1;resizable=1;rotatable=1;deletable=1;editable=1;locked=0;connectable=1;fontSize=20;" parent="1" target="PSpn-6Nec1iFac_MyreH-8" edge="1">
          <mxGeometry width="50" height="50" relative="1" as="geometry">
            <mxPoint x="-840" y="530" as="sourcePoint" />
            <mxPoint x="-310" y="250" as="targetPoint" />
          </mxGeometry>
        </mxCell>
        <mxCell id="PSpn-6Nec1iFac_MyreH-13" value="선택상품을 구매한다" style="ellipse;whiteSpace=wrap;html=1;movable=1;resizable=1;rotatable=1;deletable=1;editable=1;locked=0;connectable=1;fontSize=20;" parent="1" vertex="1">
          <mxGeometry x="-600" y="290" width="190" height="40" as="geometry" />
        </mxCell>
        <mxCell id="PSpn-6Nec1iFac_MyreH-14" value="구매할 상품을 선택한다" style="ellipse;whiteSpace=wrap;html=1;movable=1;resizable=1;rotatable=1;deletable=1;editable=1;locked=0;connectable=1;fontSize=20;" parent="1" vertex="1">
          <mxGeometry x="-679.5" y="460" width="229.5" height="40" as="geometry" />
        </mxCell>
        <mxCell id="PSpn-6Nec1iFac_MyreH-15" value="상품을 검색한다." style="ellipse;whiteSpace=wrap;html=1;movable=1;resizable=1;rotatable=1;deletable=1;editable=1;locked=0;connectable=1;fontSize=20;" parent="1" vertex="1">
          <mxGeometry x="-700" y="524" width="180" height="40" as="geometry" />
        </mxCell>
        <mxCell id="PSpn-6Nec1iFac_MyreH-16" value="" style="endArrow=classic;html=1;rounded=0;movable=1;resizable=1;rotatable=1;deletable=1;editable=1;locked=0;connectable=1;fontSize=20;entryX=0;entryY=0.5;entryDx=0;entryDy=0;exitX=0.5;exitY=1;exitDx=0;exitDy=0;" parent="1" source="PSpn-6Nec1iFac_MyreH-8" target="PSpn-6Nec1iFac_MyreH-15" edge="1">
          <mxGeometry width="50" height="50" relative="1" as="geometry">
            <mxPoint x="-660" y="530" as="sourcePoint" />
            <mxPoint x="-560" y="550" as="targetPoint" />
          </mxGeometry>
        </mxCell>
        <mxCell id="PSpn-6Nec1iFac_MyreH-18" value="" style="endArrow=classic;html=1;rounded=0;exitX=0.101;exitY=0.225;exitDx=0;exitDy=0;entryX=0;entryY=1;entryDx=0;entryDy=0;movable=1;resizable=1;rotatable=1;deletable=1;editable=1;locked=0;connectable=1;fontSize=20;exitPerimeter=0;" parent="1" source="PSpn-6Nec1iFac_MyreH-14" target="PSpn-6Nec1iFac_MyreH-13" edge="1">
          <mxGeometry width="50" height="50" relative="1" as="geometry">
            <mxPoint x="-150" y="390" as="sourcePoint" />
            <mxPoint x="-100" y="340" as="targetPoint" />
          </mxGeometry>
        </mxCell>
        <mxCell id="PSpn-6Nec1iFac_MyreH-26" value="회원" style="rounded=0;whiteSpace=wrap;html=1;fontSize=20;movable=1;resizable=1;rotatable=1;deletable=1;editable=1;locked=0;connectable=1;" parent="1" vertex="1">
          <mxGeometry x="-760" y="1335" width="120" height="60" as="geometry" />
        </mxCell>
        <mxCell id="PSpn-6Nec1iFac_MyreH-27" value="상품" style="rounded=0;whiteSpace=wrap;html=1;fontSize=20;movable=1;resizable=1;rotatable=1;deletable=1;editable=1;locked=0;connectable=1;" parent="1" vertex="1">
          <mxGeometry x="290" y="1330" width="120" height="60" as="geometry" />
        </mxCell>
        <mxCell id="PSpn-6Nec1iFac_MyreH-28" value="주문" style="rhombus;whiteSpace=wrap;html=1;fontSize=20;movable=1;resizable=1;rotatable=1;deletable=1;editable=1;locked=0;connectable=1;" parent="1" vertex="1">
          <mxGeometry x="-240" y="1215" width="240" height="80" as="geometry" />
        </mxCell>
        <mxCell id="PSpn-6Nec1iFac_MyreH-30" value="" style="endArrow=classic;html=1;rounded=0;exitX=0.5;exitY=0;exitDx=0;exitDy=0;entryX=0;entryY=0.5;entryDx=0;entryDy=0;movable=1;resizable=1;rotatable=1;deletable=1;editable=1;locked=0;connectable=1;fontSize=20;" parent="1" source="PSpn-6Nec1iFac_MyreH-26" target="PSpn-6Nec1iFac_MyreH-28" edge="1">
          <mxGeometry width="50" height="50" relative="1" as="geometry">
            <mxPoint x="-110" y="1375" as="sourcePoint" />
            <mxPoint x="-60" y="1325" as="targetPoint" />
            <Array as="points">
              <mxPoint x="-700" y="1255" />
            </Array>
          </mxGeometry>
        </mxCell>
        <mxCell id="PSpn-6Nec1iFac_MyreH-31" value="" style="endArrow=classic;html=1;rounded=0;exitX=0.5;exitY=0;exitDx=0;exitDy=0;movable=1;resizable=1;rotatable=1;deletable=1;editable=1;locked=0;connectable=1;entryX=0;entryY=1;entryDx=0;entryDy=0;fontSize=20;" parent="1" source="PSpn-6Nec1iFac_MyreH-27" target="PSpn-6Nec1iFac_MyreH-33" edge="1">
          <mxGeometry width="50" height="50" relative="1" as="geometry">
            <mxPoint x="-110" y="1375" as="sourcePoint" />
            <mxPoint x="10" y="1310" as="targetPoint" />
            <Array as="points">
              <mxPoint x="350" y="1255" />
            </Array>
          </mxGeometry>
        </mxCell>
        <mxCell id="PSpn-6Nec1iFac_MyreH-32" value="1" style="text;html=1;strokeColor=none;fillColor=none;align=center;verticalAlign=middle;whiteSpace=wrap;rounded=0;fontSize=20;movable=1;resizable=1;rotatable=1;deletable=1;editable=1;locked=0;connectable=1;" parent="1" vertex="1">
          <mxGeometry x="-280" y="1215" width="40" height="40" as="geometry" />
        </mxCell>
        <mxCell id="PSpn-6Nec1iFac_MyreH-33" value="N" style="text;html=1;strokeColor=none;fillColor=none;align=center;verticalAlign=middle;whiteSpace=wrap;rounded=0;fontSize=20;movable=1;resizable=1;rotatable=1;deletable=1;editable=1;locked=0;connectable=1;" parent="1" vertex="1">
          <mxGeometry y="1215" width="40" height="40" as="geometry" />
        </mxCell>
        <mxCell id="PSpn-6Nec1iFac_MyreH-34" value="&lt;font style=&quot;font-size: 20px;&quot; color=&quot;#ff0000&quot;&gt;아이디&lt;/font&gt;" style="ellipse;whiteSpace=wrap;html=1;movable=1;resizable=1;rotatable=1;deletable=1;editable=1;locked=0;connectable=1;fontSize=20;" parent="1" vertex="1">
          <mxGeometry x="-485" y="1270" width="110" height="50" as="geometry" />
        </mxCell>
        <mxCell id="PSpn-6Nec1iFac_MyreH-35" value="비밀번호" style="ellipse;whiteSpace=wrap;html=1;movable=1;resizable=1;rotatable=1;deletable=1;editable=1;locked=0;connectable=1;fontSize=20;" parent="1" vertex="1">
          <mxGeometry x="-485" y="1330" width="110" height="50" as="geometry" />
        </mxCell>
        <mxCell id="PSpn-6Nec1iFac_MyreH-36" value="회원명" style="ellipse;whiteSpace=wrap;html=1;movable=1;resizable=1;rotatable=1;deletable=1;editable=1;locked=0;connectable=1;fontSize=20;" parent="1" vertex="1">
          <mxGeometry x="-485" y="1390" width="110" height="50" as="geometry" />
        </mxCell>
        <mxCell id="PSpn-6Nec1iFac_MyreH-37" value="연락처" style="ellipse;whiteSpace=wrap;html=1;movable=1;resizable=1;rotatable=1;deletable=1;editable=1;locked=0;connectable=1;fontSize=20;" parent="1" vertex="1">
          <mxGeometry x="-485" y="1450" width="110" height="50" as="geometry" />
        </mxCell>
        <mxCell id="PSpn-6Nec1iFac_MyreH-38" value="주소" style="ellipse;whiteSpace=wrap;html=1;movable=1;resizable=1;rotatable=1;deletable=1;editable=1;locked=0;connectable=1;fontSize=20;" parent="1" vertex="1">
          <mxGeometry x="-480" y="1510" width="105" height="50" as="geometry" />
        </mxCell>
        <mxCell id="PSpn-6Nec1iFac_MyreH-39" value="" style="endArrow=classic;html=1;rounded=0;entryX=0;entryY=0.5;entryDx=0;entryDy=0;exitX=1;exitY=0.5;exitDx=0;exitDy=0;movable=1;resizable=1;rotatable=1;deletable=1;editable=1;locked=0;connectable=1;fontSize=20;" parent="1" source="PSpn-6Nec1iFac_MyreH-26" target="PSpn-6Nec1iFac_MyreH-34" edge="1">
          <mxGeometry width="50" height="50" relative="1" as="geometry">
            <mxPoint x="-878" y="1365" as="sourcePoint" />
            <mxPoint x="-248" y="1325" as="targetPoint" />
          </mxGeometry>
        </mxCell>
        <mxCell id="PSpn-6Nec1iFac_MyreH-40" value="" style="endArrow=classic;html=1;rounded=0;exitX=1;exitY=0.5;exitDx=0;exitDy=0;entryX=0;entryY=0.5;entryDx=0;entryDy=0;movable=1;resizable=1;rotatable=1;deletable=1;editable=1;locked=0;connectable=1;fontSize=20;" parent="1" source="PSpn-6Nec1iFac_MyreH-26" target="PSpn-6Nec1iFac_MyreH-35" edge="1">
          <mxGeometry width="50" height="50" relative="1" as="geometry">
            <mxPoint x="-298" y="1375" as="sourcePoint" />
            <mxPoint x="-248" y="1325" as="targetPoint" />
          </mxGeometry>
        </mxCell>
        <mxCell id="PSpn-6Nec1iFac_MyreH-41" value="" style="endArrow=classic;html=1;rounded=0;exitX=1;exitY=0.5;exitDx=0;exitDy=0;entryX=0;entryY=0.5;entryDx=0;entryDy=0;movable=1;resizable=1;rotatable=1;deletable=1;editable=1;locked=0;connectable=1;fontSize=20;" parent="1" source="PSpn-6Nec1iFac_MyreH-26" target="PSpn-6Nec1iFac_MyreH-36" edge="1">
          <mxGeometry width="50" height="50" relative="1" as="geometry">
            <mxPoint x="-288" y="1385" as="sourcePoint" />
            <mxPoint x="-238" y="1335" as="targetPoint" />
          </mxGeometry>
        </mxCell>
        <mxCell id="PSpn-6Nec1iFac_MyreH-42" value="" style="endArrow=classic;html=1;rounded=0;exitX=1;exitY=0.5;exitDx=0;exitDy=0;entryX=0;entryY=0.5;entryDx=0;entryDy=0;movable=1;resizable=1;rotatable=1;deletable=1;editable=1;locked=0;connectable=1;fontSize=20;" parent="1" source="PSpn-6Nec1iFac_MyreH-26" target="PSpn-6Nec1iFac_MyreH-37" edge="1">
          <mxGeometry width="50" height="50" relative="1" as="geometry">
            <mxPoint x="-548" y="1385" as="sourcePoint" />
            <mxPoint x="-228" y="1345" as="targetPoint" />
          </mxGeometry>
        </mxCell>
        <mxCell id="PSpn-6Nec1iFac_MyreH-43" value="" style="endArrow=classic;html=1;rounded=0;exitX=1;exitY=0.5;exitDx=0;exitDy=0;entryX=0;entryY=0.5;entryDx=0;entryDy=0;movable=1;resizable=1;rotatable=1;deletable=1;editable=1;locked=0;connectable=1;fontSize=20;" parent="1" source="PSpn-6Nec1iFac_MyreH-26" target="PSpn-6Nec1iFac_MyreH-38" edge="1">
          <mxGeometry width="50" height="50" relative="1" as="geometry">
            <mxPoint x="-368" y="1425" as="sourcePoint" />
            <mxPoint x="-218" y="1355" as="targetPoint" />
          </mxGeometry>
        </mxCell>
        <mxCell id="PSpn-6Nec1iFac_MyreH-44" value="&lt;font color=&quot;#ff0000&quot; style=&quot;font-size: 20px;&quot;&gt;상품코드&lt;/font&gt;" style="ellipse;whiteSpace=wrap;html=1;movable=1;resizable=1;rotatable=1;deletable=1;editable=1;locked=0;connectable=1;fontSize=20;" parent="1" vertex="1">
          <mxGeometry x="50" y="1270" width="110" height="50" as="geometry" />
        </mxCell>
        <mxCell id="PSpn-6Nec1iFac_MyreH-45" value="상품명" style="ellipse;whiteSpace=wrap;html=1;movable=1;resizable=1;rotatable=1;deletable=1;editable=1;locked=0;connectable=1;fontSize=20;" parent="1" vertex="1">
          <mxGeometry x="50" y="1330" width="110" height="50" as="geometry" />
        </mxCell>
        <mxCell id="PSpn-6Nec1iFac_MyreH-46" value="판매가" style="ellipse;whiteSpace=wrap;html=1;movable=1;resizable=1;rotatable=1;deletable=1;editable=1;locked=0;connectable=1;fontSize=20;" parent="1" vertex="1">
          <mxGeometry x="50" y="1390" width="110" height="50" as="geometry" />
        </mxCell>
        <mxCell id="PSpn-6Nec1iFac_MyreH-47" value="상품설명" style="ellipse;whiteSpace=wrap;html=1;movable=1;resizable=1;rotatable=1;deletable=1;editable=1;locked=0;connectable=1;fontSize=20;" parent="1" vertex="1">
          <mxGeometry x="50" y="1450" width="110" height="50" as="geometry" />
        </mxCell>
        <mxCell id="PSpn-6Nec1iFac_MyreH-48" value="재고" style="ellipse;whiteSpace=wrap;html=1;movable=1;resizable=1;rotatable=1;deletable=1;editable=1;locked=0;connectable=1;fontSize=20;" parent="1" vertex="1">
          <mxGeometry x="50" y="1510" width="110" height="50" as="geometry" />
        </mxCell>
        <mxCell id="PSpn-6Nec1iFac_MyreH-50" value="" style="endArrow=classic;html=1;rounded=0;exitX=0;exitY=0.5;exitDx=0;exitDy=0;entryX=1;entryY=0.5;entryDx=0;entryDy=0;movable=1;resizable=1;rotatable=1;deletable=1;editable=1;locked=0;connectable=1;fontSize=20;" parent="1" source="PSpn-6Nec1iFac_MyreH-27" target="PSpn-6Nec1iFac_MyreH-44" edge="1">
          <mxGeometry width="50" height="50" relative="1" as="geometry">
            <mxPoint x="191" y="1375" as="sourcePoint" />
            <mxPoint x="241" y="1325" as="targetPoint" />
          </mxGeometry>
        </mxCell>
        <mxCell id="PSpn-6Nec1iFac_MyreH-51" value="" style="endArrow=classic;html=1;rounded=0;exitX=0;exitY=0.5;exitDx=0;exitDy=0;entryX=1;entryY=0.5;entryDx=0;entryDy=0;movable=1;resizable=1;rotatable=1;deletable=1;editable=1;locked=0;connectable=1;fontSize=20;" parent="1" source="PSpn-6Nec1iFac_MyreH-27" target="PSpn-6Nec1iFac_MyreH-45" edge="1">
          <mxGeometry width="50" height="50" relative="1" as="geometry">
            <mxPoint x="201" y="1385" as="sourcePoint" />
            <mxPoint x="251" y="1335" as="targetPoint" />
          </mxGeometry>
        </mxCell>
        <mxCell id="PSpn-6Nec1iFac_MyreH-52" value="" style="endArrow=classic;html=1;rounded=0;exitX=0;exitY=0.5;exitDx=0;exitDy=0;entryX=1;entryY=0.5;entryDx=0;entryDy=0;movable=1;resizable=1;rotatable=1;deletable=1;editable=1;locked=0;connectable=1;fontSize=20;" parent="1" source="PSpn-6Nec1iFac_MyreH-27" target="PSpn-6Nec1iFac_MyreH-46" edge="1">
          <mxGeometry width="50" height="50" relative="1" as="geometry">
            <mxPoint x="211" y="1395" as="sourcePoint" />
            <mxPoint x="261" y="1345" as="targetPoint" />
          </mxGeometry>
        </mxCell>
        <mxCell id="PSpn-6Nec1iFac_MyreH-53" value="" style="endArrow=classic;html=1;rounded=0;exitX=0;exitY=0.5;exitDx=0;exitDy=0;entryX=1;entryY=0.5;entryDx=0;entryDy=0;movable=1;resizable=1;rotatable=1;deletable=1;editable=1;locked=0;connectable=1;fontSize=20;" parent="1" source="PSpn-6Nec1iFac_MyreH-27" target="PSpn-6Nec1iFac_MyreH-47" edge="1">
          <mxGeometry width="50" height="50" relative="1" as="geometry">
            <mxPoint x="221" y="1405" as="sourcePoint" />
            <mxPoint x="271" y="1355" as="targetPoint" />
          </mxGeometry>
        </mxCell>
        <mxCell id="PSpn-6Nec1iFac_MyreH-54" value="" style="endArrow=classic;html=1;rounded=0;exitX=0;exitY=0.5;exitDx=0;exitDy=0;entryX=1;entryY=0.5;entryDx=0;entryDy=0;movable=1;resizable=1;rotatable=1;deletable=1;editable=1;locked=0;connectable=1;fontSize=20;" parent="1" source="PSpn-6Nec1iFac_MyreH-27" target="PSpn-6Nec1iFac_MyreH-48" edge="1">
          <mxGeometry width="50" height="50" relative="1" as="geometry">
            <mxPoint x="231" y="1415" as="sourcePoint" />
            <mxPoint x="281" y="1365" as="targetPoint" />
          </mxGeometry>
        </mxCell>
        <mxCell id="PSpn-6Nec1iFac_MyreH-56" value="&lt;font color=&quot;#ff0000&quot; style=&quot;font-size: 20px;&quot;&gt;주문번호&lt;/font&gt;" style="ellipse;whiteSpace=wrap;html=1;movable=1;resizable=1;rotatable=1;deletable=1;editable=1;locked=0;connectable=1;fontSize=20;" parent="1" vertex="1">
          <mxGeometry x="-720" y="1055" width="110" height="50" as="geometry" />
        </mxCell>
        <mxCell id="PSpn-6Nec1iFac_MyreH-57" value="&lt;font color=&quot;#0000ff&quot; style=&quot;font-size: 20px;&quot;&gt;아이디&lt;/font&gt;" style="ellipse;whiteSpace=wrap;html=1;movable=1;resizable=1;rotatable=1;deletable=1;editable=1;locked=0;connectable=1;fontSize=20;" parent="1" vertex="1">
          <mxGeometry x="-600" y="1055" width="110" height="50" as="geometry" />
        </mxCell>
        <mxCell id="PSpn-6Nec1iFac_MyreH-58" value="&lt;font color=&quot;#0000ff&quot; style=&quot;font-size: 20px;&quot;&gt;상품코드&lt;/font&gt;" style="ellipse;whiteSpace=wrap;html=1;movable=1;resizable=1;rotatable=1;deletable=1;editable=1;locked=0;connectable=1;fontSize=20;" parent="1" vertex="1">
          <mxGeometry x="-481" y="1055" width="110" height="50" as="geometry" />
        </mxCell>
        <mxCell id="PSpn-6Nec1iFac_MyreH-59" value="수량" style="ellipse;whiteSpace=wrap;html=1;movable=1;resizable=1;rotatable=1;deletable=1;editable=1;locked=0;connectable=1;fontSize=20;" parent="1" vertex="1">
          <mxGeometry x="-360" y="1055" width="110" height="50" as="geometry" />
        </mxCell>
        <mxCell id="PSpn-6Nec1iFac_MyreH-61" value="" style="endArrow=classic;html=1;rounded=0;exitX=0.5;exitY=0;exitDx=0;exitDy=0;entryX=0.5;entryY=1;entryDx=0;entryDy=0;movable=1;resizable=1;rotatable=1;deletable=1;editable=1;locked=0;connectable=1;fontSize=20;" parent="1" source="PSpn-6Nec1iFac_MyreH-28" target="PSpn-6Nec1iFac_MyreH-56" edge="1">
          <mxGeometry width="50" height="50" relative="1" as="geometry">
            <mxPoint x="-605" y="1175" as="sourcePoint" />
            <mxPoint x="-555" y="1125" as="targetPoint" />
          </mxGeometry>
        </mxCell>
        <mxCell id="PSpn-6Nec1iFac_MyreH-62" value="" style="endArrow=classic;html=1;rounded=0;exitX=0.5;exitY=0;exitDx=0;exitDy=0;entryX=0.5;entryY=1;entryDx=0;entryDy=0;movable=1;resizable=1;rotatable=1;deletable=1;editable=1;locked=0;connectable=1;fontSize=20;" parent="1" source="PSpn-6Nec1iFac_MyreH-28" target="PSpn-6Nec1iFac_MyreH-57" edge="1">
          <mxGeometry width="50" height="50" relative="1" as="geometry">
            <mxPoint x="-595" y="1185" as="sourcePoint" />
            <mxPoint x="-545" y="1135" as="targetPoint" />
          </mxGeometry>
        </mxCell>
        <mxCell id="PSpn-6Nec1iFac_MyreH-63" value="" style="endArrow=classic;html=1;rounded=0;exitX=0.5;exitY=0;exitDx=0;exitDy=0;entryX=0.5;entryY=1;entryDx=0;entryDy=0;movable=1;resizable=1;rotatable=1;deletable=1;editable=1;locked=0;connectable=1;fontSize=20;" parent="1" source="PSpn-6Nec1iFac_MyreH-28" target="PSpn-6Nec1iFac_MyreH-58" edge="1">
          <mxGeometry width="50" height="50" relative="1" as="geometry">
            <mxPoint x="-585" y="1195" as="sourcePoint" />
            <mxPoint x="-535" y="1145" as="targetPoint" />
          </mxGeometry>
        </mxCell>
        <mxCell id="PSpn-6Nec1iFac_MyreH-64" value="" style="endArrow=classic;html=1;rounded=0;exitX=0.5;exitY=0;exitDx=0;exitDy=0;entryX=0.5;entryY=1;entryDx=0;entryDy=0;movable=1;resizable=1;rotatable=1;deletable=1;editable=1;locked=0;connectable=1;fontSize=20;" parent="1" source="PSpn-6Nec1iFac_MyreH-28" target="PSpn-6Nec1iFac_MyreH-59" edge="1">
          <mxGeometry width="50" height="50" relative="1" as="geometry">
            <mxPoint x="-575" y="1205" as="sourcePoint" />
            <mxPoint x="-525" y="1155" as="targetPoint" />
          </mxGeometry>
        </mxCell>
        <mxCell id="PSpn-6Nec1iFac_MyreH-65" value="" style="endArrow=classic;html=1;rounded=0;exitX=0.5;exitY=0;exitDx=0;exitDy=0;entryX=0.5;entryY=1;entryDx=0;entryDy=0;movable=1;resizable=1;rotatable=1;deletable=1;editable=1;locked=0;connectable=1;fontSize=20;" parent="1" source="PSpn-6Nec1iFac_MyreH-28" target="9bXuFKs-c-cI5n4KC5Fp-40" edge="1">
          <mxGeometry width="50" height="50" relative="1" as="geometry">
            <mxPoint x="-565" y="1215" as="sourcePoint" />
            <mxPoint x="55" y="1155" as="targetPoint" />
          </mxGeometry>
        </mxCell>
        <mxCell id="PSpn-6Nec1iFac_MyreH-67" style="edgeStyle=orthogonalEdgeStyle;rounded=0;orthogonalLoop=1;jettySize=auto;html=1;exitX=0.5;exitY=1;exitDx=0;exitDy=0;movable=1;resizable=1;rotatable=1;deletable=1;editable=1;locked=0;connectable=1;fontSize=20;" parent="1" source="PSpn-6Nec1iFac_MyreH-13" target="PSpn-6Nec1iFac_MyreH-13" edge="1">
          <mxGeometry relative="1" as="geometry" />
        </mxCell>
        <mxCell id="PSpn-6Nec1iFac_MyreH-75" value="" style="endArrow=classic;html=1;rounded=0;entryX=1;entryY=0;entryDx=0;entryDy=0;movable=1;resizable=1;rotatable=1;deletable=1;editable=1;locked=0;connectable=1;fontSize=20;" parent="1" target="9bXuFKs-c-cI5n4KC5Fp-13" edge="1">
          <mxGeometry width="50" height="50" relative="1" as="geometry">
            <mxPoint x="500" y="60" as="sourcePoint" />
            <mxPoint x="310" y="320" as="targetPoint" />
          </mxGeometry>
        </mxCell>
        <mxCell id="PSpn-6Nec1iFac_MyreH-86" value="" style="endArrow=classic;html=1;rounded=0;exitX=1;exitY=0;exitDx=0;exitDy=0;entryX=0.5;entryY=1;entryDx=0;entryDy=0;fontSize=20;" parent="1" source="PSpn-6Nec1iFac_MyreH-14" target="PSpn-6Nec1iFac_MyreH-83" edge="1">
          <mxGeometry width="50" height="50" relative="1" as="geometry">
            <mxPoint x="-50" y="330" as="sourcePoint" />
            <mxPoint y="280" as="targetPoint" />
          </mxGeometry>
        </mxCell>
        <mxCell id="PSpn-6Nec1iFac_MyreH-87" value="배송관리" style="ellipse;whiteSpace=wrap;html=1;movable=1;resizable=1;rotatable=1;deletable=1;editable=1;locked=0;connectable=1;fontSize=20;fontColor=#ff0000;" parent="1" vertex="1">
          <mxGeometry x="347" y="380" width="120" height="80" as="geometry" />
        </mxCell>
        <mxCell id="PSpn-6Nec1iFac_MyreH-88" value="회원관리" style="ellipse;whiteSpace=wrap;html=1;movable=1;resizable=1;rotatable=1;deletable=1;editable=1;locked=0;connectable=1;fontSize=20;fontColor=#ff0000;" parent="1" vertex="1">
          <mxGeometry x="352" y="480" width="120" height="80" as="geometry" />
        </mxCell>
        <mxCell id="PSpn-6Nec1iFac_MyreH-89" value="" style="endArrow=classic;html=1;rounded=0;entryX=1;entryY=0.5;entryDx=0;entryDy=0;fontSize=20;" parent="1" target="PSpn-6Nec1iFac_MyreH-87" edge="1">
          <mxGeometry width="50" height="50" relative="1" as="geometry">
            <mxPoint x="500" y="60" as="sourcePoint" />
            <mxPoint y="280" as="targetPoint" />
          </mxGeometry>
        </mxCell>
        <mxCell id="PSpn-6Nec1iFac_MyreH-90" value="" style="endArrow=classic;html=1;rounded=0;entryX=1;entryY=0.5;entryDx=0;entryDy=0;fontSize=20;" parent="1" target="PSpn-6Nec1iFac_MyreH-88" edge="1">
          <mxGeometry width="50" height="50" relative="1" as="geometry">
            <mxPoint x="500" y="60" as="sourcePoint" />
            <mxPoint y="280" as="targetPoint" />
          </mxGeometry>
        </mxCell>
        <mxCell id="PSpn-6Nec1iFac_MyreH-93" value="결재관리" style="ellipse;whiteSpace=wrap;html=1;movable=1;resizable=1;rotatable=1;deletable=1;editable=1;locked=0;connectable=1;fontSize=20;fontColor=#ff0000;" parent="1" vertex="1">
          <mxGeometry x="-140" y="225" width="120" height="80" as="geometry" />
        </mxCell>
        <mxCell id="PSpn-6Nec1iFac_MyreH-94" value="리뷰 관리" style="ellipse;whiteSpace=wrap;html=1;movable=1;resizable=1;rotatable=1;deletable=1;editable=1;locked=0;connectable=1;fontSize=20;fontColor=#ff0000;" parent="1" vertex="1">
          <mxGeometry x="-270" y="130" width="120" height="80" as="geometry" />
        </mxCell>
        <mxCell id="PSpn-6Nec1iFac_MyreH-97" value="" style="endArrow=classic;html=1;rounded=0;entryX=0.5;entryY=0;entryDx=0;entryDy=0;fontSize=20;" parent="1" target="PSpn-6Nec1iFac_MyreH-93" edge="1">
          <mxGeometry width="50" height="50" relative="1" as="geometry">
            <mxPoint x="500" y="60" as="sourcePoint" />
            <mxPoint y="280" as="targetPoint" />
          </mxGeometry>
        </mxCell>
        <mxCell id="PSpn-6Nec1iFac_MyreH-98" value="" style="endArrow=classic;html=1;rounded=0;entryX=1;entryY=0.5;entryDx=0;entryDy=0;fontSize=20;" parent="1" target="PSpn-6Nec1iFac_MyreH-94" edge="1">
          <mxGeometry width="50" height="50" relative="1" as="geometry">
            <mxPoint x="500" y="60" as="sourcePoint" />
            <mxPoint y="280" as="targetPoint" />
          </mxGeometry>
        </mxCell>
        <mxCell id="PSpn-6Nec1iFac_MyreH-99" value="상품을 추가한다" style="ellipse;whiteSpace=wrap;html=1;movable=1;resizable=1;rotatable=1;deletable=1;editable=1;locked=0;connectable=1;fontSize=20;" parent="1" vertex="1">
          <mxGeometry x="100" y="300" width="170" height="40" as="geometry" />
        </mxCell>
        <mxCell id="PSpn-6Nec1iFac_MyreH-100" value="상품 정보를 수정한다" style="ellipse;whiteSpace=wrap;html=1;movable=1;resizable=1;rotatable=1;deletable=1;editable=1;locked=0;connectable=1;fontSize=20;" parent="1" vertex="1">
          <mxGeometry x="50" y="245" width="210" height="40" as="geometry" />
        </mxCell>
        <mxCell id="PSpn-6Nec1iFac_MyreH-101" value="재고를 갱신한다" style="ellipse;whiteSpace=wrap;html=1;movable=1;resizable=1;rotatable=1;deletable=1;editable=1;locked=0;connectable=1;fontSize=20;" parent="1" vertex="1">
          <mxGeometry x="106.5" y="193.86" width="163.5" height="40" as="geometry" />
        </mxCell>
        <mxCell id="PSpn-6Nec1iFac_MyreH-102" value="" style="endArrow=classic;html=1;rounded=0;entryX=0;entryY=0.5;entryDx=0;entryDy=0;exitX=1;exitY=0.5;exitDx=0;exitDy=0;dashed=1;fontSize=20;" parent="1" source="PSpn-6Nec1iFac_MyreH-101" target="9bXuFKs-c-cI5n4KC5Fp-13" edge="1">
          <mxGeometry width="50" height="50" relative="1" as="geometry">
            <mxPoint x="-50" y="330" as="sourcePoint" />
            <mxPoint x="197.67999999999984" y="302.79999999999995" as="targetPoint" />
          </mxGeometry>
        </mxCell>
        <mxCell id="PSpn-6Nec1iFac_MyreH-103" value="" style="endArrow=classic;html=1;rounded=0;entryX=0;entryY=0.5;entryDx=0;entryDy=0;exitX=1;exitY=0.5;exitDx=0;exitDy=0;dashed=1;fontSize=20;" parent="1" source="PSpn-6Nec1iFac_MyreH-99" target="9bXuFKs-c-cI5n4KC5Fp-13" edge="1">
          <mxGeometry width="50" height="50" relative="1" as="geometry">
            <mxPoint x="-50" y="330" as="sourcePoint" />
            <mxPoint x="194.19999999999982" y="333.44000000000005" as="targetPoint" />
          </mxGeometry>
        </mxCell>
        <mxCell id="PSpn-6Nec1iFac_MyreH-104" value="" style="endArrow=classic;html=1;rounded=0;exitX=1;exitY=0.5;exitDx=0;exitDy=0;entryX=0;entryY=0.5;entryDx=0;entryDy=0;dashed=1;fontSize=20;" parent="1" source="PSpn-6Nec1iFac_MyreH-100" target="9bXuFKs-c-cI5n4KC5Fp-13" edge="1">
          <mxGeometry width="50" height="50" relative="1" as="geometry">
            <mxPoint x="-50" y="330" as="sourcePoint" />
            <mxPoint x="190" y="320" as="targetPoint" />
          </mxGeometry>
        </mxCell>
        <mxCell id="PSpn-6Nec1iFac_MyreH-105" value="인증회사" style="shape=umlActor;verticalLabelPosition=bottom;verticalAlign=top;html=1;outlineConnect=0;fontSize=24;" parent="1" vertex="1">
          <mxGeometry x="-95" y="600" width="30" height="60" as="geometry" />
        </mxCell>
        <mxCell id="PSpn-6Nec1iFac_MyreH-106" value="사용자 인증" style="ellipse;whiteSpace=wrap;html=1;fontSize=20;fontColor=#ff0000;" parent="1" vertex="1">
          <mxGeometry x="-165" y="385" width="170" height="55" as="geometry" />
        </mxCell>
        <mxCell id="PSpn-6Nec1iFac_MyreH-107" value="" style="endArrow=classic;html=1;rounded=0;exitX=0.5;exitY=1;exitDx=0;exitDy=0;entryX=0.5;entryY=0;entryDx=0;entryDy=0;entryPerimeter=0;fontSize=20;" parent="1" source="PSpn-6Nec1iFac_MyreH-106" target="PSpn-6Nec1iFac_MyreH-105" edge="1">
          <mxGeometry width="50" height="50" relative="1" as="geometry">
            <mxPoint x="-50" y="620" as="sourcePoint" />
            <mxPoint y="570" as="targetPoint" />
          </mxGeometry>
        </mxCell>
        <mxCell id="PSpn-6Nec1iFac_MyreH-109" value="신용카드로 결재한다" style="ellipse;whiteSpace=wrap;html=1;movable=1;resizable=1;rotatable=1;deletable=1;editable=1;locked=0;connectable=1;fontSize=20;" parent="1" vertex="1">
          <mxGeometry x="-371" y="290" width="201" height="40" as="geometry" />
        </mxCell>
        <mxCell id="PSpn-6Nec1iFac_MyreH-117" value="" style="endArrow=classic;html=1;rounded=0;exitX=1;exitY=0;exitDx=0;exitDy=0;entryX=0;entryY=0.5;entryDx=0;entryDy=0;fontSize=20;" parent="1" source="PSpn-6Nec1iFac_MyreH-93" target="PSpn-6Nec1iFac_MyreH-101" edge="1">
          <mxGeometry width="50" height="50" relative="1" as="geometry">
            <mxPoint x="-50" y="480" as="sourcePoint" />
            <mxPoint y="430" as="targetPoint" />
          </mxGeometry>
        </mxCell>
        <mxCell id="PSpn-6Nec1iFac_MyreH-118" value="배송정보가 발생한다" style="ellipse;whiteSpace=wrap;html=1;movable=1;resizable=1;rotatable=1;deletable=1;editable=1;locked=0;connectable=1;fontSize=20;" parent="1" vertex="1">
          <mxGeometry x="40" y="360" width="210" height="40" as="geometry" />
        </mxCell>
        <mxCell id="PSpn-6Nec1iFac_MyreH-119" value="" style="endArrow=classic;html=1;rounded=0;exitX=1;exitY=0;exitDx=0;exitDy=0;entryX=0;entryY=0;entryDx=0;entryDy=0;fontSize=20;" parent="1" source="PSpn-6Nec1iFac_MyreH-93" target="PSpn-6Nec1iFac_MyreH-118" edge="1">
          <mxGeometry width="50" height="50" relative="1" as="geometry">
            <mxPoint x="-50" y="480" as="sourcePoint" />
            <mxPoint y="430" as="targetPoint" />
          </mxGeometry>
        </mxCell>
        <mxCell id="PSpn-6Nec1iFac_MyreH-120" value="" style="endArrow=classic;html=1;rounded=0;exitX=1;exitY=0.5;exitDx=0;exitDy=0;entryX=0;entryY=0.5;entryDx=0;entryDy=0;fontSize=20;" parent="1" source="PSpn-6Nec1iFac_MyreH-118" target="PSpn-6Nec1iFac_MyreH-87" edge="1">
          <mxGeometry width="50" height="50" relative="1" as="geometry">
            <mxPoint x="-50" y="480" as="sourcePoint" />
            <mxPoint y="430" as="targetPoint" />
          </mxGeometry>
        </mxCell>
        <mxCell id="PSpn-6Nec1iFac_MyreH-121" value="회원을 삭제한다" style="ellipse;whiteSpace=wrap;html=1;movable=1;resizable=1;rotatable=1;deletable=1;editable=1;locked=0;connectable=1;fontSize=20;" parent="1" vertex="1">
          <mxGeometry x="106.5" y="520" width="163.5" height="40" as="geometry" />
        </mxCell>
        <mxCell id="PSpn-6Nec1iFac_MyreH-122" value="회원 정보를 수정한다" style="ellipse;whiteSpace=wrap;html=1;movable=1;resizable=1;rotatable=1;deletable=1;editable=1;locked=0;connectable=1;fontSize=20;" parent="1" vertex="1">
          <mxGeometry x="90" y="470" width="210" height="40" as="geometry" />
        </mxCell>
        <mxCell id="PSpn-6Nec1iFac_MyreH-123" value="회원을 조회한다" style="ellipse;whiteSpace=wrap;html=1;movable=1;resizable=1;rotatable=1;deletable=1;editable=1;locked=0;connectable=1;fontSize=20;" parent="1" vertex="1">
          <mxGeometry x="106.5" y="420" width="173.5" height="40" as="geometry" />
        </mxCell>
        <mxCell id="PSpn-6Nec1iFac_MyreH-124" value="" style="endArrow=classic;html=1;rounded=0;exitX=1;exitY=0.5;exitDx=0;exitDy=0;entryX=0;entryY=0.5;entryDx=0;entryDy=0;fontSize=20;dashed=1;" parent="1" source="PSpn-6Nec1iFac_MyreH-123" target="PSpn-6Nec1iFac_MyreH-88" edge="1">
          <mxGeometry width="50" height="50" relative="1" as="geometry">
            <mxPoint x="-50" y="480" as="sourcePoint" />
            <mxPoint y="430" as="targetPoint" />
          </mxGeometry>
        </mxCell>
        <mxCell id="PSpn-6Nec1iFac_MyreH-125" value="" style="endArrow=classic;html=1;rounded=0;exitX=1;exitY=0.5;exitDx=0;exitDy=0;entryX=0;entryY=0.5;entryDx=0;entryDy=0;fontSize=20;dashed=1;" parent="1" source="PSpn-6Nec1iFac_MyreH-122" target="PSpn-6Nec1iFac_MyreH-88" edge="1">
          <mxGeometry width="50" height="50" relative="1" as="geometry">
            <mxPoint x="-50" y="480" as="sourcePoint" />
            <mxPoint y="430" as="targetPoint" />
          </mxGeometry>
        </mxCell>
        <mxCell id="PSpn-6Nec1iFac_MyreH-126" value="" style="endArrow=classic;html=1;rounded=0;exitX=1;exitY=0.5;exitDx=0;exitDy=0;entryX=0;entryY=0.5;entryDx=0;entryDy=0;fontSize=20;dashed=1;" parent="1" source="PSpn-6Nec1iFac_MyreH-121" target="PSpn-6Nec1iFac_MyreH-88" edge="1">
          <mxGeometry width="50" height="50" relative="1" as="geometry">
            <mxPoint x="-50" y="480" as="sourcePoint" />
            <mxPoint y="430" as="targetPoint" />
          </mxGeometry>
        </mxCell>
        <mxCell id="PSpn-6Nec1iFac_MyreH-127" value="" style="endArrow=classic;html=1;rounded=0;entryX=1;entryY=0.5;entryDx=0;entryDy=0;exitX=0;exitY=0.5;exitDx=0;exitDy=0;dashed=1;fontSize=20;" parent="1" source="PSpn-6Nec1iFac_MyreH-123" target="PSpn-6Nec1iFac_MyreH-106" edge="1">
          <mxGeometry width="50" height="50" relative="1" as="geometry">
            <mxPoint x="-50" y="480" as="sourcePoint" />
            <mxPoint y="430" as="targetPoint" />
          </mxGeometry>
        </mxCell>
        <mxCell id="PSpn-6Nec1iFac_MyreH-128" value="" style="endArrow=classic;html=1;rounded=0;entryX=1;entryY=0.5;entryDx=0;entryDy=0;exitX=0;exitY=0.5;exitDx=0;exitDy=0;dashed=1;fontSize=20;" parent="1" source="PSpn-6Nec1iFac_MyreH-122" target="PSpn-6Nec1iFac_MyreH-106" edge="1">
          <mxGeometry width="50" height="50" relative="1" as="geometry">
            <mxPoint x="10" y="450" as="sourcePoint" />
            <mxPoint x="-105" y="515" as="targetPoint" />
          </mxGeometry>
        </mxCell>
        <mxCell id="PSpn-6Nec1iFac_MyreH-129" value="" style="endArrow=classic;html=1;rounded=0;entryX=1;entryY=0.5;entryDx=0;entryDy=0;exitX=0;exitY=0.5;exitDx=0;exitDy=0;dashed=1;fontSize=20;" parent="1" source="PSpn-6Nec1iFac_MyreH-121" target="PSpn-6Nec1iFac_MyreH-106" edge="1">
          <mxGeometry width="50" height="50" relative="1" as="geometry">
            <mxPoint x="20" y="460" as="sourcePoint" />
            <mxPoint x="-95" y="525" as="targetPoint" />
          </mxGeometry>
        </mxCell>
        <mxCell id="PSpn-6Nec1iFac_MyreH-136" value="" style="endArrow=classic;html=1;rounded=0;exitX=0.5;exitY=0;exitDx=0;exitDy=0;entryX=0.5;entryY=1;entryDx=0;entryDy=0;fontSize=20;" parent="1" source="PSpn-6Nec1iFac_MyreH-15" target="PSpn-6Nec1iFac_MyreH-14" edge="1">
          <mxGeometry width="50" height="50" relative="1" as="geometry">
            <mxPoint x="-50" y="480" as="sourcePoint" />
            <mxPoint y="430" as="targetPoint" />
          </mxGeometry>
        </mxCell>
        <mxCell id="PSpn-6Nec1iFac_MyreH-139" value="결제" style="rhombus;whiteSpace=wrap;html=1;fontSize=20;" parent="1" vertex="1">
          <mxGeometry x="-221" y="1380" width="200" height="90" as="geometry" />
        </mxCell>
        <mxCell id="PSpn-6Nec1iFac_MyreH-141" value="&lt;font color=&quot;#ff0000&quot; style=&quot;font-size: 20px;&quot;&gt;결제 번호&lt;/font&gt;" style="ellipse;whiteSpace=wrap;html=1;movable=1;resizable=1;rotatable=1;deletable=1;editable=1;locked=0;connectable=1;fontSize=20;" parent="1" vertex="1">
          <mxGeometry x="-360" y="1580" width="110" height="50" as="geometry" />
        </mxCell>
        <mxCell id="PSpn-6Nec1iFac_MyreH-147" value="결제 수단" style="ellipse;whiteSpace=wrap;html=1;movable=1;resizable=1;rotatable=1;deletable=1;editable=1;locked=0;connectable=1;fontSize=20;" parent="1" vertex="1">
          <mxGeometry x="-110" y="1580" width="110" height="50" as="geometry" />
        </mxCell>
        <mxCell id="PSpn-6Nec1iFac_MyreH-148" value="&lt;font color=&quot;#0000ff&quot; style=&quot;font-size: 20px;&quot;&gt;주문번호&lt;/font&gt;" style="ellipse;whiteSpace=wrap;html=1;movable=1;resizable=1;rotatable=1;deletable=1;editable=1;locked=0;connectable=1;fontSize=20;" parent="1" vertex="1">
          <mxGeometry x="-240" y="1580" width="110" height="50" as="geometry" />
        </mxCell>
        <mxCell id="PSpn-6Nec1iFac_MyreH-152" value="사용자" style="shape=umlActor;verticalLabelPosition=bottom;verticalAlign=top;html=1;outlineConnect=0;fontSize=24;" parent="1" vertex="1">
          <mxGeometry x="620" y="86" width="30" height="60" as="geometry" />
        </mxCell>
        <mxCell id="PSpn-6Nec1iFac_MyreH-153" value="시스템" style="rounded=0;whiteSpace=wrap;html=1;fontSize=24;" parent="1" vertex="1">
          <mxGeometry x="570" y="186" width="120" height="60" as="geometry" />
        </mxCell>
        <mxCell id="PSpn-6Nec1iFac_MyreH-155" value="활동" style="ellipse;whiteSpace=wrap;html=1;fontSize=24;" parent="1" vertex="1">
          <mxGeometry x="570" y="286" width="120" height="60" as="geometry" />
        </mxCell>
        <mxCell id="PSpn-6Nec1iFac_MyreH-157" value="" style="endArrow=classic;html=1;rounded=0;fontSize=24;" parent="1" edge="1">
          <mxGeometry width="50" height="50" relative="1" as="geometry">
            <mxPoint x="585" y="460" as="sourcePoint" />
            <mxPoint x="675" y="460" as="targetPoint" />
          </mxGeometry>
        </mxCell>
        <mxCell id="PSpn-6Nec1iFac_MyreH-158" value="이동" style="text;html=1;strokeColor=none;fillColor=none;align=center;verticalAlign=middle;whiteSpace=wrap;rounded=0;fontSize=24;" parent="1" vertex="1">
          <mxGeometry x="580" y="470" width="100" height="30" as="geometry" />
        </mxCell>
        <mxCell id="PSpn-6Nec1iFac_MyreH-160" value="" style="endArrow=classic;html=1;rounded=0;dashed=1;fontSize=24;" parent="1" edge="1">
          <mxGeometry width="50" height="50" relative="1" as="geometry">
            <mxPoint x="585" y="510" as="sourcePoint" />
            <mxPoint x="675" y="510" as="targetPoint" />
          </mxGeometry>
        </mxCell>
        <mxCell id="PSpn-6Nec1iFac_MyreH-161" value="포함 또는&lt;br style=&quot;font-size: 24px;&quot;&gt;&amp;nbsp;확장" style="text;html=1;strokeColor=none;fillColor=none;align=center;verticalAlign=middle;whiteSpace=wrap;rounded=0;fontSize=24;" parent="1" vertex="1">
          <mxGeometry x="512.5" y="534" width="245" height="30" as="geometry" />
        </mxCell>
        <mxCell id="PSpn-6Nec1iFac_MyreH-163" value="" style="endArrow=classic;html=1;rounded=0;entryX=0.5;entryY=0;entryDx=0;entryDy=0;exitX=0.5;exitY=1;exitDx=0;exitDy=0;fontSize=20;" parent="1" source="PSpn-6Nec1iFac_MyreH-139" target="PSpn-6Nec1iFac_MyreH-147" edge="1">
          <mxGeometry width="50" height="50" relative="1" as="geometry">
            <mxPoint x="220" y="1545" as="sourcePoint" />
            <mxPoint x="100" y="1575" as="targetPoint" />
          </mxGeometry>
        </mxCell>
        <mxCell id="PSpn-6Nec1iFac_MyreH-168" value="" style="endArrow=classic;html=1;rounded=0;entryX=0.5;entryY=0;entryDx=0;entryDy=0;exitX=0.5;exitY=1;exitDx=0;exitDy=0;fontSize=20;" parent="1" source="PSpn-6Nec1iFac_MyreH-139" target="PSpn-6Nec1iFac_MyreH-141" edge="1">
          <mxGeometry width="50" height="50" relative="1" as="geometry">
            <mxPoint x="-440" y="1605" as="sourcePoint" />
            <mxPoint x="-390" y="1555" as="targetPoint" />
          </mxGeometry>
        </mxCell>
        <mxCell id="PSpn-6Nec1iFac_MyreH-171" value="" style="endArrow=classic;html=1;rounded=0;entryX=0.5;entryY=0;entryDx=0;entryDy=0;exitX=0.5;exitY=1;exitDx=0;exitDy=0;fontSize=20;" parent="1" source="PSpn-6Nec1iFac_MyreH-139" target="PSpn-6Nec1iFac_MyreH-148" edge="1">
          <mxGeometry width="50" height="50" relative="1" as="geometry">
            <mxPoint x="230" y="1555" as="sourcePoint" />
            <mxPoint x="215" y="1665" as="targetPoint" />
          </mxGeometry>
        </mxCell>
        <mxCell id="PSpn-6Nec1iFac_MyreH-173" value="배송" style="rounded=0;whiteSpace=wrap;html=1;fontSize=20;" parent="1" vertex="1">
          <mxGeometry x="-205" y="1651" width="170" height="60" as="geometry" />
        </mxCell>
        <mxCell id="PSpn-6Nec1iFac_MyreH-174" value="&lt;font color=&quot;#ff0000&quot; style=&quot;font-size: 20px;&quot;&gt;배송 번호&lt;/font&gt;" style="ellipse;whiteSpace=wrap;html=1;movable=1;resizable=1;rotatable=1;deletable=1;editable=1;locked=0;connectable=1;fontSize=20;" parent="1" vertex="1">
          <mxGeometry x="-436.5" y="1781" width="110" height="50" as="geometry" />
        </mxCell>
        <mxCell id="PSpn-6Nec1iFac_MyreH-175" value="운송장 번호" style="ellipse;whiteSpace=wrap;html=1;movable=1;resizable=1;rotatable=1;deletable=1;editable=1;locked=0;connectable=1;fontSize=20;" parent="1" vertex="1">
          <mxGeometry x="-46.5" y="1781" width="110" height="50" as="geometry" />
        </mxCell>
        <mxCell id="PSpn-6Nec1iFac_MyreH-179" value="배송 회사" style="ellipse;whiteSpace=wrap;html=1;movable=1;resizable=1;rotatable=1;deletable=1;editable=1;locked=0;connectable=1;fontSize=20;" parent="1" vertex="1">
          <mxGeometry x="-176.5" y="1781" width="110" height="50" as="geometry" />
        </mxCell>
        <mxCell id="PSpn-6Nec1iFac_MyreH-180" value="&lt;font color=&quot;#0000ff&quot; style=&quot;font-size: 20px;&quot;&gt;결제 번호&lt;/font&gt;" style="ellipse;whiteSpace=wrap;html=1;movable=1;resizable=1;rotatable=1;deletable=1;editable=1;locked=0;connectable=1;fontSize=20;" parent="1" vertex="1">
          <mxGeometry x="-306.5" y="1781" width="110" height="50" as="geometry" />
        </mxCell>
        <mxCell id="PSpn-6Nec1iFac_MyreH-181" value="배송 현황" style="ellipse;whiteSpace=wrap;html=1;movable=1;resizable=1;rotatable=1;deletable=1;editable=1;locked=0;connectable=1;fontSize=20;" parent="1" vertex="1">
          <mxGeometry x="86.5" y="1781" width="110" height="50" as="geometry" />
        </mxCell>
        <mxCell id="PSpn-6Nec1iFac_MyreH-182" value="" style="endArrow=classic;html=1;rounded=0;entryX=0.5;entryY=0;entryDx=0;entryDy=0;exitX=0.5;exitY=1;exitDx=0;exitDy=0;fontSize=20;" parent="1" source="PSpn-6Nec1iFac_MyreH-173" target="PSpn-6Nec1iFac_MyreH-180" edge="1">
          <mxGeometry width="50" height="50" relative="1" as="geometry">
            <mxPoint x="90" y="1691" as="sourcePoint" />
            <mxPoint x="200" y="1801" as="targetPoint" />
          </mxGeometry>
        </mxCell>
        <mxCell id="PSpn-6Nec1iFac_MyreH-183" value="" style="endArrow=classic;html=1;rounded=0;exitX=0.5;exitY=1;exitDx=0;exitDy=0;entryX=0.5;entryY=0;entryDx=0;entryDy=0;fontSize=20;" parent="1" source="PSpn-6Nec1iFac_MyreH-173" target="PSpn-6Nec1iFac_MyreH-179" edge="1">
          <mxGeometry width="50" height="50" relative="1" as="geometry">
            <mxPoint x="-320" y="1701" as="sourcePoint" />
            <mxPoint x="-110" y="1791" as="targetPoint" />
          </mxGeometry>
        </mxCell>
        <mxCell id="PSpn-6Nec1iFac_MyreH-187" value="" style="endArrow=classic;html=1;rounded=0;entryX=0.5;entryY=0;entryDx=0;entryDy=0;exitX=0.5;exitY=1;exitDx=0;exitDy=0;fontSize=20;" parent="1" source="PSpn-6Nec1iFac_MyreH-173" target="PSpn-6Nec1iFac_MyreH-174" edge="1">
          <mxGeometry width="50" height="50" relative="1" as="geometry">
            <mxPoint x="-125" y="1761" as="sourcePoint" />
            <mxPoint x="-580" y="1801" as="targetPoint" />
          </mxGeometry>
        </mxCell>
        <mxCell id="PSpn-6Nec1iFac_MyreH-188" value="" style="endArrow=classic;html=1;rounded=0;entryX=0.5;entryY=0;entryDx=0;entryDy=0;exitX=0.5;exitY=1;exitDx=0;exitDy=0;fontSize=20;" parent="1" source="PSpn-6Nec1iFac_MyreH-173" target="PSpn-6Nec1iFac_MyreH-175" edge="1">
          <mxGeometry width="50" height="50" relative="1" as="geometry">
            <mxPoint x="-125" y="1761" as="sourcePoint" />
            <mxPoint x="70" y="1801" as="targetPoint" />
          </mxGeometry>
        </mxCell>
        <mxCell id="PSpn-6Nec1iFac_MyreH-189" value="" style="endArrow=classic;html=1;rounded=0;entryX=0.5;entryY=0;entryDx=0;entryDy=0;exitX=0.5;exitY=1;exitDx=0;exitDy=0;fontSize=20;" parent="1" source="PSpn-6Nec1iFac_MyreH-173" target="PSpn-6Nec1iFac_MyreH-181" edge="1">
          <mxGeometry width="50" height="50" relative="1" as="geometry">
            <mxPoint x="-125" y="1761" as="sourcePoint" />
            <mxPoint x="330" y="1801" as="targetPoint" />
          </mxGeometry>
        </mxCell>
        <mxCell id="PSpn-6Nec1iFac_MyreH-190" value="" style="endArrow=classic;html=1;rounded=0;exitX=0.5;exitY=1;exitDx=0;exitDy=0;entryX=0.5;entryY=0;entryDx=0;entryDy=0;fontSize=20;" parent="1" source="PSpn-6Nec1iFac_MyreH-28" target="PSpn-6Nec1iFac_MyreH-139" edge="1">
          <mxGeometry width="50" height="50" relative="1" as="geometry">
            <mxPoint x="20" y="1515" as="sourcePoint" />
            <mxPoint x="70" y="1465" as="targetPoint" />
          </mxGeometry>
        </mxCell>
        <mxCell id="PSpn-6Nec1iFac_MyreH-192" value="1" style="text;html=1;strokeColor=none;fillColor=none;align=center;verticalAlign=middle;whiteSpace=wrap;rounded=0;fontSize=20;movable=1;resizable=1;rotatable=1;deletable=1;editable=1;locked=0;connectable=1;" parent="1" vertex="1">
          <mxGeometry x="-160" y="1295" width="40" height="40" as="geometry" />
        </mxCell>
        <mxCell id="PSpn-6Nec1iFac_MyreH-193" value="" style="endArrow=classic;html=1;rounded=0;exitX=0.5;exitY=1;exitDx=0;exitDy=0;entryX=0.5;entryY=0;entryDx=0;entryDy=0;fontSize=20;" parent="1" source="PSpn-6Nec1iFac_MyreH-139" target="PSpn-6Nec1iFac_MyreH-173" edge="1">
          <mxGeometry width="50" height="50" relative="1" as="geometry">
            <mxPoint x="-120" y="1605" as="sourcePoint" />
            <mxPoint x="-70" y="1770" as="targetPoint" />
          </mxGeometry>
        </mxCell>
        <mxCell id="PSpn-6Nec1iFac_MyreH-194" value="1" style="text;html=1;strokeColor=none;fillColor=none;align=center;verticalAlign=middle;whiteSpace=wrap;rounded=0;fontSize=20;movable=1;resizable=1;rotatable=1;deletable=1;editable=1;locked=0;connectable=1;" parent="1" vertex="1">
          <mxGeometry x="-153" y="1510" width="40" height="40" as="geometry" />
        </mxCell>
        <mxCell id="PSpn-6Nec1iFac_MyreH-195" value="장바구니" style="rhombus;whiteSpace=wrap;html=1;fontSize=20;" parent="1" vertex="1">
          <mxGeometry x="-220" y="914" width="200" height="90" as="geometry" />
        </mxCell>
        <mxCell id="PSpn-6Nec1iFac_MyreH-196" value="" style="endArrow=classic;html=1;rounded=0;exitX=0.5;exitY=1;exitDx=0;exitDy=0;entryX=0.5;entryY=0;entryDx=0;entryDy=0;dashed=1;dashPattern=8 8;strokeWidth=2;strokeColor=#ff0000;fontSize=20;" parent="1" source="PSpn-6Nec1iFac_MyreH-195" target="PSpn-6Nec1iFac_MyreH-28" edge="1">
          <mxGeometry width="50" height="50" relative="1" as="geometry">
            <mxPoint x="30" y="1225" as="sourcePoint" />
            <mxPoint x="80" y="1175" as="targetPoint" />
          </mxGeometry>
        </mxCell>
        <mxCell id="PSpn-6Nec1iFac_MyreH-197" value="" style="endArrow=classic;html=1;rounded=0;exitX=0.25;exitY=0;exitDx=0;exitDy=0;entryX=0;entryY=0.5;entryDx=0;entryDy=0;fontSize=20;" parent="1" source="PSpn-6Nec1iFac_MyreH-26" target="PSpn-6Nec1iFac_MyreH-195" edge="1">
          <mxGeometry width="50" height="50" relative="1" as="geometry">
            <mxPoint x="-531" y="1335" as="sourcePoint" />
            <mxPoint x="-221" y="955" as="targetPoint" />
            <Array as="points">
              <mxPoint x="-730" y="960" />
            </Array>
          </mxGeometry>
        </mxCell>
        <mxCell id="PSpn-6Nec1iFac_MyreH-198" value="1" style="text;html=1;strokeColor=none;fillColor=none;align=center;verticalAlign=middle;whiteSpace=wrap;rounded=0;fontSize=20;movable=1;resizable=1;rotatable=1;deletable=1;editable=1;locked=0;connectable=1;" parent="1" vertex="1">
          <mxGeometry x="-275" y="913" width="40" height="40" as="geometry" />
        </mxCell>
        <mxCell id="PSpn-6Nec1iFac_MyreH-199" value="" style="endArrow=classic;html=1;rounded=0;entryX=1;entryY=0.5;entryDx=0;entryDy=0;exitX=0.75;exitY=0;exitDx=0;exitDy=0;fontSize=20;" parent="1" source="PSpn-6Nec1iFac_MyreH-27" target="PSpn-6Nec1iFac_MyreH-195" edge="1">
          <mxGeometry width="50" height="50" relative="1" as="geometry">
            <mxPoint x="460" y="1170" as="sourcePoint" />
            <mxPoint x="80" y="1155" as="targetPoint" />
            <Array as="points">
              <mxPoint x="380" y="960" />
            </Array>
          </mxGeometry>
        </mxCell>
        <mxCell id="PSpn-6Nec1iFac_MyreH-201" value="N" style="text;html=1;strokeColor=none;fillColor=none;align=center;verticalAlign=middle;whiteSpace=wrap;rounded=0;fontSize=20;movable=1;resizable=1;rotatable=1;deletable=1;editable=1;locked=0;connectable=1;" parent="1" vertex="1">
          <mxGeometry x="-5" y="913" width="40" height="40" as="geometry" />
        </mxCell>
        <mxCell id="PSpn-6Nec1iFac_MyreH-202" value="&lt;font color=&quot;#ff0000&quot; style=&quot;font-size: 20px;&quot;&gt;장바구니번호&lt;/font&gt;" style="ellipse;whiteSpace=wrap;html=1;movable=1;resizable=1;rotatable=1;deletable=1;editable=1;locked=0;connectable=1;fontSize=20;" parent="1" vertex="1">
          <mxGeometry x="-390" y="800" width="129" height="50" as="geometry" />
        </mxCell>
        <mxCell id="PSpn-6Nec1iFac_MyreH-203" value="&lt;font color=&quot;#0000ff&quot; style=&quot;font-size: 20px;&quot;&gt;아이디&lt;/font&gt;" style="ellipse;whiteSpace=wrap;html=1;movable=1;resizable=1;rotatable=1;deletable=1;editable=1;locked=0;connectable=1;fontSize=20;" parent="1" vertex="1">
          <mxGeometry x="-241" y="800" width="110" height="50" as="geometry" />
        </mxCell>
        <mxCell id="PSpn-6Nec1iFac_MyreH-204" value="&lt;font color=&quot;#0000ff&quot; style=&quot;font-size: 20px;&quot;&gt;상품코드&lt;/font&gt;" style="ellipse;whiteSpace=wrap;html=1;movable=1;resizable=1;rotatable=1;deletable=1;editable=1;locked=0;connectable=1;fontSize=20;" parent="1" vertex="1">
          <mxGeometry x="-111" y="800" width="110" height="50" as="geometry" />
        </mxCell>
        <mxCell id="PSpn-6Nec1iFac_MyreH-205" value="수량" style="ellipse;whiteSpace=wrap;html=1;movable=1;resizable=1;rotatable=1;deletable=1;editable=1;locked=0;connectable=1;fontSize=20;" parent="1" vertex="1">
          <mxGeometry x="19" y="800" width="110" height="50" as="geometry" />
        </mxCell>
        <mxCell id="PSpn-6Nec1iFac_MyreH-207" value="" style="endArrow=classic;html=1;rounded=0;exitX=0.5;exitY=0;exitDx=0;exitDy=0;entryX=0.5;entryY=1;entryDx=0;entryDy=0;fontSize=20;" parent="1" source="PSpn-6Nec1iFac_MyreH-195" target="PSpn-6Nec1iFac_MyreH-204" edge="1">
          <mxGeometry width="50" height="50" relative="1" as="geometry">
            <mxPoint x="-160" y="760" as="sourcePoint" />
            <mxPoint x="-140" y="870" as="targetPoint" />
          </mxGeometry>
        </mxCell>
        <mxCell id="PSpn-6Nec1iFac_MyreH-208" value="" style="endArrow=classic;html=1;rounded=0;exitX=0.5;exitY=0;exitDx=0;exitDy=0;entryX=0.5;entryY=1;entryDx=0;entryDy=0;fontSize=20;" parent="1" source="PSpn-6Nec1iFac_MyreH-195" target="PSpn-6Nec1iFac_MyreH-203" edge="1">
          <mxGeometry width="50" height="50" relative="1" as="geometry">
            <mxPoint x="-150" y="770" as="sourcePoint" />
            <mxPoint x="-110" y="720" as="targetPoint" />
          </mxGeometry>
        </mxCell>
        <mxCell id="PSpn-6Nec1iFac_MyreH-209" value="" style="endArrow=classic;html=1;rounded=0;exitX=0.5;exitY=0;exitDx=0;exitDy=0;entryX=0.5;entryY=1;entryDx=0;entryDy=0;fontSize=20;" parent="1" source="PSpn-6Nec1iFac_MyreH-195" target="PSpn-6Nec1iFac_MyreH-205" edge="1">
          <mxGeometry width="50" height="50" relative="1" as="geometry">
            <mxPoint x="-140" y="780" as="sourcePoint" />
            <mxPoint x="-90" y="730" as="targetPoint" />
          </mxGeometry>
        </mxCell>
        <mxCell id="PSpn-6Nec1iFac_MyreH-211" value="" style="endArrow=classic;html=1;rounded=0;exitX=0.5;exitY=0;exitDx=0;exitDy=0;entryX=0.5;entryY=1;entryDx=0;entryDy=0;fontSize=20;" parent="1" source="PSpn-6Nec1iFac_MyreH-195" target="PSpn-6Nec1iFac_MyreH-202" edge="1">
          <mxGeometry width="50" height="50" relative="1" as="geometry">
            <mxPoint x="-740" y="880" as="sourcePoint" />
            <mxPoint x="-690" y="830" as="targetPoint" />
          </mxGeometry>
        </mxCell>
        <mxCell id="9bXuFKs-c-cI5n4KC5Fp-1" value="&lt;font color=&quot;#ff3333&quot; style=&quot;font-size: 24px;&quot;&gt;그룹&lt;/font&gt;" style="ellipse;whiteSpace=wrap;html=1;fontSize=24;" parent="1" vertex="1">
          <mxGeometry x="570" y="366" width="120" height="60" as="geometry" />
        </mxCell>
        <mxCell id="PSpn-6Nec1iFac_MyreH-83" value="선택한 상품을 장바구니에 담는다" style="ellipse;whiteSpace=wrap;html=1;movable=1;resizable=1;rotatable=1;deletable=1;editable=1;locked=0;connectable=1;fontSize=20;" parent="1" vertex="1">
          <mxGeometry x="-577.75" y="400" width="337.75" height="40" as="geometry" />
        </mxCell>
        <mxCell id="9bXuFKs-c-cI5n4KC5Fp-7" value="" style="endArrow=classic;html=1;rounded=0;exitX=0.5;exitY=0;exitDx=0;exitDy=0;entryX=0.62;entryY=1.009;entryDx=0;entryDy=0;entryPerimeter=0;fontSize=20;" parent="1" source="PSpn-6Nec1iFac_MyreH-83" target="PSpn-6Nec1iFac_MyreH-13" edge="1">
          <mxGeometry width="50" height="50" relative="1" as="geometry">
            <mxPoint x="-30" y="530" as="sourcePoint" />
            <mxPoint x="20" y="480" as="targetPoint" />
          </mxGeometry>
        </mxCell>
        <mxCell id="9bXuFKs-c-cI5n4KC5Fp-9" value="구매한 상품에 대해 구매확정을 한다" style="ellipse;whiteSpace=wrap;html=1;movable=1;resizable=1;rotatable=1;deletable=1;editable=1;locked=0;connectable=1;fontSize=20;" parent="1" vertex="1">
          <mxGeometry x="-547.5" y="153.86" width="176.5" height="80" as="geometry" />
        </mxCell>
        <mxCell id="9bXuFKs-c-cI5n4KC5Fp-13" value="상품관리" style="ellipse;whiteSpace=wrap;html=1;movable=1;resizable=1;rotatable=1;deletable=1;editable=1;locked=0;connectable=1;fontSize=20;fontColor=#ff0000;" parent="1" vertex="1">
          <mxGeometry x="342" y="260" width="120" height="80" as="geometry" />
        </mxCell>
        <mxCell id="9bXuFKs-c-cI5n4KC5Fp-15" value="" style="endArrow=classic;html=1;rounded=0;exitX=1;exitY=0;exitDx=0;exitDy=0;entryX=0;entryY=0.5;entryDx=0;entryDy=0;fontSize=20;" parent="1" source="9bXuFKs-c-cI5n4KC5Fp-9" target="PSpn-6Nec1iFac_MyreH-94" edge="1">
          <mxGeometry width="50" height="50" relative="1" as="geometry">
            <mxPoint x="-30" y="340" as="sourcePoint" />
            <mxPoint x="-227" y="190" as="targetPoint" />
          </mxGeometry>
        </mxCell>
        <mxCell id="9bXuFKs-c-cI5n4KC5Fp-21" value="" style="endArrow=classic;html=1;rounded=0;exitX=0.5;exitY=0;exitDx=0;exitDy=0;entryX=0;entryY=0.5;entryDx=0;entryDy=0;fontSize=20;" parent="1" source="PSpn-6Nec1iFac_MyreH-8" target="9bXuFKs-c-cI5n4KC5Fp-9" edge="1">
          <mxGeometry width="50" height="50" relative="1" as="geometry">
            <mxPoint x="-50" y="480" as="sourcePoint" />
            <mxPoint y="430" as="targetPoint" />
          </mxGeometry>
        </mxCell>
        <mxCell id="9bXuFKs-c-cI5n4KC5Fp-23" value="체크카드로 결재한다" style="ellipse;whiteSpace=wrap;html=1;movable=1;resizable=1;rotatable=1;deletable=1;editable=1;locked=0;connectable=1;fontSize=20;" parent="1" vertex="1">
          <mxGeometry x="-371" y="245" width="201" height="40" as="geometry" />
        </mxCell>
        <mxCell id="9bXuFKs-c-cI5n4KC5Fp-24" style="edgeStyle=orthogonalEdgeStyle;rounded=0;orthogonalLoop=1;jettySize=auto;html=1;exitX=0.5;exitY=1;exitDx=0;exitDy=0;fontSize=20;" parent="1" source="9bXuFKs-c-cI5n4KC5Fp-23" target="9bXuFKs-c-cI5n4KC5Fp-23" edge="1">
          <mxGeometry relative="1" as="geometry" />
        </mxCell>
        <mxCell id="9bXuFKs-c-cI5n4KC5Fp-25" value="" style="endArrow=classic;html=1;rounded=0;exitX=1;exitY=0.5;exitDx=0;exitDy=0;entryX=0;entryY=0.5;entryDx=0;entryDy=0;fontSize=20;" parent="1" source="PSpn-6Nec1iFac_MyreH-13" target="PSpn-6Nec1iFac_MyreH-109" edge="1">
          <mxGeometry width="50" height="50" relative="1" as="geometry">
            <mxPoint x="-10" y="440" as="sourcePoint" />
            <mxPoint x="40" y="390" as="targetPoint" />
          </mxGeometry>
        </mxCell>
        <mxCell id="9bXuFKs-c-cI5n4KC5Fp-26" value="" style="endArrow=classic;html=1;rounded=0;exitX=1;exitY=0.5;exitDx=0;exitDy=0;entryX=0;entryY=0.5;entryDx=0;entryDy=0;fontSize=20;" parent="1" source="PSpn-6Nec1iFac_MyreH-13" target="9bXuFKs-c-cI5n4KC5Fp-23" edge="1">
          <mxGeometry width="50" height="50" relative="1" as="geometry">
            <mxPoint x="-10" y="440" as="sourcePoint" />
            <mxPoint x="40" y="390" as="targetPoint" />
          </mxGeometry>
        </mxCell>
        <mxCell id="9bXuFKs-c-cI5n4KC5Fp-29" value="" style="endArrow=classic;html=1;rounded=0;exitX=1;exitY=0.5;exitDx=0;exitDy=0;entryX=0;entryY=0.5;entryDx=0;entryDy=0;fontSize=20;" parent="1" source="9bXuFKs-c-cI5n4KC5Fp-23" target="PSpn-6Nec1iFac_MyreH-93" edge="1">
          <mxGeometry width="50" height="50" relative="1" as="geometry">
            <mxPoint x="-10" y="440" as="sourcePoint" />
            <mxPoint x="40" y="390" as="targetPoint" />
          </mxGeometry>
        </mxCell>
        <mxCell id="9bXuFKs-c-cI5n4KC5Fp-30" value="" style="endArrow=classic;html=1;rounded=0;exitX=1;exitY=0.5;exitDx=0;exitDy=0;entryX=0;entryY=0.5;entryDx=0;entryDy=0;fontSize=20;" parent="1" source="PSpn-6Nec1iFac_MyreH-109" target="PSpn-6Nec1iFac_MyreH-93" edge="1">
          <mxGeometry width="50" height="50" relative="1" as="geometry">
            <mxPoint x="-10" y="440" as="sourcePoint" />
            <mxPoint x="40" y="390" as="targetPoint" />
          </mxGeometry>
        </mxCell>
        <mxCell id="9bXuFKs-c-cI5n4KC5Fp-31" value="" style="endArrow=classic;html=1;rounded=0;exitX=0.5;exitY=1;exitDx=0;exitDy=0;entryX=0.5;entryY=0;entryDx=0;entryDy=0;fontSize=20;" parent="1" source="PSpn-6Nec1iFac_MyreH-93" target="PSpn-6Nec1iFac_MyreH-106" edge="1">
          <mxGeometry width="50" height="50" relative="1" as="geometry">
            <mxPoint x="-10" y="260" as="sourcePoint" />
            <mxPoint x="40" y="210" as="targetPoint" />
          </mxGeometry>
        </mxCell>
        <mxCell id="9bXuFKs-c-cI5n4KC5Fp-32" value="계좌이체로 결재한다" style="ellipse;whiteSpace=wrap;html=1;movable=1;resizable=1;rotatable=1;deletable=1;editable=1;locked=0;connectable=1;fontSize=20;" parent="1" vertex="1">
          <mxGeometry x="-371" y="340" width="201" height="40" as="geometry" />
        </mxCell>
        <mxCell id="9bXuFKs-c-cI5n4KC5Fp-33" value="" style="endArrow=classic;html=1;rounded=0;exitX=1;exitY=0.5;exitDx=0;exitDy=0;entryX=0;entryY=0.5;entryDx=0;entryDy=0;fontSize=20;" parent="1" source="PSpn-6Nec1iFac_MyreH-13" target="9bXuFKs-c-cI5n4KC5Fp-32" edge="1">
          <mxGeometry width="50" height="50" relative="1" as="geometry">
            <mxPoint x="-10" y="250" as="sourcePoint" />
            <mxPoint x="40" y="200" as="targetPoint" />
          </mxGeometry>
        </mxCell>
        <mxCell id="9bXuFKs-c-cI5n4KC5Fp-34" value="" style="endArrow=classic;html=1;rounded=0;exitX=1;exitY=0;exitDx=0;exitDy=0;entryX=0;entryY=0.5;entryDx=0;entryDy=0;fontSize=20;" parent="1" source="9bXuFKs-c-cI5n4KC5Fp-32" target="PSpn-6Nec1iFac_MyreH-93" edge="1">
          <mxGeometry width="50" height="50" relative="1" as="geometry">
            <mxPoint x="-10" y="250" as="sourcePoint" />
            <mxPoint x="40" y="200" as="targetPoint" />
          </mxGeometry>
        </mxCell>
        <mxCell id="9bXuFKs-c-cI5n4KC5Fp-36" value="배송 주소" style="ellipse;whiteSpace=wrap;html=1;movable=1;resizable=1;rotatable=1;deletable=1;editable=1;locked=0;connectable=1;fontSize=20;" parent="1" vertex="1">
          <mxGeometry x="129" y="1055" width="110" height="50" as="geometry" />
        </mxCell>
        <mxCell id="9bXuFKs-c-cI5n4KC5Fp-37" value="배송 구분" style="ellipse;whiteSpace=wrap;html=1;movable=1;resizable=1;rotatable=1;deletable=1;editable=1;locked=0;connectable=1;fontSize=20;" parent="1" vertex="1">
          <mxGeometry x="-240" y="1055" width="110" height="50" as="geometry" />
        </mxCell>
        <mxCell id="9bXuFKs-c-cI5n4KC5Fp-38" value="배송비" style="ellipse;whiteSpace=wrap;html=1;movable=1;resizable=1;rotatable=1;deletable=1;editable=1;locked=0;connectable=1;fontSize=20;" parent="1" vertex="1">
          <mxGeometry x="-110" y="1055" width="110" height="50" as="geometry" />
        </mxCell>
        <mxCell id="9bXuFKs-c-cI5n4KC5Fp-39" value="결제 금액" style="ellipse;whiteSpace=wrap;html=1;movable=1;resizable=1;rotatable=1;deletable=1;editable=1;locked=0;connectable=1;fontSize=20;" parent="1" vertex="1">
          <mxGeometry x="10" y="1055" width="110" height="50" as="geometry" />
        </mxCell>
        <mxCell id="9bXuFKs-c-cI5n4KC5Fp-40" value="주문일자" style="ellipse;whiteSpace=wrap;html=1;movable=1;resizable=1;rotatable=1;deletable=1;editable=1;locked=0;connectable=1;fontSize=20;" parent="1" vertex="1">
          <mxGeometry x="250" y="1055" width="110" height="50" as="geometry" />
        </mxCell>
        <mxCell id="9bXuFKs-c-cI5n4KC5Fp-41" value="" style="endArrow=classic;html=1;rounded=0;exitX=0.5;exitY=0;exitDx=0;exitDy=0;entryX=0.5;entryY=1;entryDx=0;entryDy=0;movable=1;resizable=1;rotatable=1;deletable=1;editable=1;locked=0;connectable=1;fontSize=20;" parent="1" source="PSpn-6Nec1iFac_MyreH-28" target="9bXuFKs-c-cI5n4KC5Fp-38" edge="1">
          <mxGeometry width="50" height="50" relative="1" as="geometry">
            <mxPoint x="-110" y="1225" as="sourcePoint" />
            <mxPoint x="75" y="1115" as="targetPoint" />
          </mxGeometry>
        </mxCell>
        <mxCell id="9bXuFKs-c-cI5n4KC5Fp-42" value="" style="endArrow=classic;html=1;rounded=0;entryX=0.5;entryY=1;entryDx=0;entryDy=0;movable=1;resizable=1;rotatable=1;deletable=1;editable=1;locked=0;connectable=1;exitX=0.5;exitY=0;exitDx=0;exitDy=0;fontSize=20;" parent="1" source="PSpn-6Nec1iFac_MyreH-28" target="9bXuFKs-c-cI5n4KC5Fp-39" edge="1">
          <mxGeometry width="50" height="50" relative="1" as="geometry">
            <mxPoint x="-20" y="1210" as="sourcePoint" />
            <mxPoint x="85" y="1125" as="targetPoint" />
          </mxGeometry>
        </mxCell>
        <mxCell id="9bXuFKs-c-cI5n4KC5Fp-43" value="" style="endArrow=classic;html=1;rounded=0;exitX=0.5;exitY=0;exitDx=0;exitDy=0;entryX=0.5;entryY=1;entryDx=0;entryDy=0;movable=1;resizable=1;rotatable=1;deletable=1;editable=1;locked=0;connectable=1;fontSize=20;" parent="1" source="PSpn-6Nec1iFac_MyreH-28" target="9bXuFKs-c-cI5n4KC5Fp-37" edge="1">
          <mxGeometry width="50" height="50" relative="1" as="geometry">
            <mxPoint x="-90" y="1245" as="sourcePoint" />
            <mxPoint x="95" y="1135" as="targetPoint" />
          </mxGeometry>
        </mxCell>
        <mxCell id="9bXuFKs-c-cI5n4KC5Fp-44" value="" style="endArrow=classic;html=1;rounded=0;exitX=0.5;exitY=0;exitDx=0;exitDy=0;entryX=0.5;entryY=1;entryDx=0;entryDy=0;movable=1;resizable=1;rotatable=1;deletable=1;editable=1;locked=0;connectable=1;fontSize=20;" parent="1" source="PSpn-6Nec1iFac_MyreH-28" target="9bXuFKs-c-cI5n4KC5Fp-36" edge="1">
          <mxGeometry width="50" height="50" relative="1" as="geometry">
            <mxPoint x="-80" y="1255" as="sourcePoint" />
            <mxPoint x="105" y="1145" as="targetPoint" />
          </mxGeometry>
        </mxCell>
        <mxCell id="9bXuFKs-c-cI5n4KC5Fp-47" value="리뷰" style="rhombus;whiteSpace=wrap;html=1;fontSize=20;" parent="1" vertex="1">
          <mxGeometry x="-760" y="1440" width="120" height="80" as="geometry" />
        </mxCell>
        <mxCell id="9bXuFKs-c-cI5n4KC5Fp-48" value="" style="endArrow=classic;html=1;rounded=0;exitX=0.5;exitY=1;exitDx=0;exitDy=0;entryX=0.5;entryY=0;entryDx=0;entryDy=0;fontSize=20;" parent="1" source="PSpn-6Nec1iFac_MyreH-26" target="9bXuFKs-c-cI5n4KC5Fp-47" edge="1">
          <mxGeometry width="50" height="50" relative="1" as="geometry">
            <mxPoint x="-260" y="1390" as="sourcePoint" />
            <mxPoint x="-210" y="1340" as="targetPoint" />
          </mxGeometry>
        </mxCell>
        <mxCell id="9bXuFKs-c-cI5n4KC5Fp-56" value="" style="endArrow=classic;html=1;rounded=0;exitX=1;exitY=0;exitDx=0;exitDy=0;entryX=0.5;entryY=1;entryDx=0;entryDy=0;fontSize=20;" parent="1" source="9bXuFKs-c-cI5n4KC5Fp-63" target="9bXuFKs-c-cI5n4KC5Fp-47" edge="1">
          <mxGeometry width="50" height="50" relative="1" as="geometry">
            <mxPoint x="-620" y="1480" as="sourcePoint" />
            <mxPoint x="-210" y="1340" as="targetPoint" />
          </mxGeometry>
        </mxCell>
        <mxCell id="9bXuFKs-c-cI5n4KC5Fp-58" value="" style="endArrow=classic;html=1;rounded=0;exitX=1;exitY=0;exitDx=0;exitDy=0;entryX=0.5;entryY=1;entryDx=0;entryDy=0;fontSize=20;" parent="1" source="9bXuFKs-c-cI5n4KC5Fp-68" target="9bXuFKs-c-cI5n4KC5Fp-47" edge="1">
          <mxGeometry width="50" height="50" relative="1" as="geometry">
            <mxPoint x="-620" y="1595" as="sourcePoint" />
            <mxPoint x="-740" y="1500" as="targetPoint" />
          </mxGeometry>
        </mxCell>
        <mxCell id="9bXuFKs-c-cI5n4KC5Fp-60" value="" style="endArrow=classic;html=1;rounded=0;exitX=1;exitY=0;exitDx=0;exitDy=0;entryX=0.5;entryY=1;entryDx=0;entryDy=0;fontSize=20;" parent="1" source="9bXuFKs-c-cI5n4KC5Fp-65" target="9bXuFKs-c-cI5n4KC5Fp-47" edge="1">
          <mxGeometry width="50" height="50" relative="1" as="geometry">
            <mxPoint x="-620" y="1715" as="sourcePoint" />
            <mxPoint x="-720" y="1520" as="targetPoint" />
          </mxGeometry>
        </mxCell>
        <mxCell id="9bXuFKs-c-cI5n4KC5Fp-62" value="1" style="text;html=1;strokeColor=none;fillColor=none;align=center;verticalAlign=middle;whiteSpace=wrap;rounded=0;fontSize=20;movable=1;resizable=1;rotatable=1;deletable=1;editable=1;locked=0;connectable=1;" parent="1" vertex="1">
          <mxGeometry x="-740" y="1395" width="40" height="40" as="geometry" />
        </mxCell>
        <mxCell id="9bXuFKs-c-cI5n4KC5Fp-63" value="&lt;font style=&quot;font-size: 20px;&quot;&gt;리뷰번호&lt;/font&gt;" style="ellipse;whiteSpace=wrap;html=1;movable=1;resizable=1;rotatable=1;deletable=1;editable=1;locked=0;connectable=1;fontColor=#ff0000;fontSize=20;" parent="1" vertex="1">
          <mxGeometry x="-840" y="1540" width="120" height="40" as="geometry" />
        </mxCell>
        <mxCell id="9bXuFKs-c-cI5n4KC5Fp-64" value="&lt;font style=&quot;font-size: 20px;&quot;&gt;평점&lt;/font&gt;" style="ellipse;whiteSpace=wrap;html=1;movable=1;resizable=1;rotatable=1;deletable=1;editable=1;locked=0;connectable=1;fontColor=#ffffff;fontSize=20;" parent="1" vertex="1">
          <mxGeometry x="-590" y="1786" width="120" height="40" as="geometry" />
        </mxCell>
        <mxCell id="9bXuFKs-c-cI5n4KC5Fp-66" value="&lt;font style=&quot;font-size: 20px;&quot;&gt;작성일&lt;/font&gt;" style="ellipse;whiteSpace=wrap;html=1;movable=1;resizable=1;rotatable=1;deletable=1;editable=1;locked=0;connectable=1;fontColor=#ffffff;fontSize=20;" parent="1" vertex="1">
          <mxGeometry x="-710" y="1690" width="120" height="40" as="geometry" />
        </mxCell>
        <mxCell id="9bXuFKs-c-cI5n4KC5Fp-67" value="&lt;font style=&quot;font-size: 20px;&quot;&gt;주문번호&lt;/font&gt;" style="ellipse;whiteSpace=wrap;html=1;movable=1;resizable=1;rotatable=1;deletable=1;editable=1;locked=0;connectable=1;fontColor=#0000ff;fontSize=20;" parent="1" vertex="1">
          <mxGeometry x="-760" y="1640" width="120" height="40" as="geometry" />
        </mxCell>
        <mxCell id="GVLGzIOLrcj9VpgJ61Zn-2" value="이메일" style="ellipse;whiteSpace=wrap;html=1;movable=1;resizable=1;rotatable=1;deletable=1;editable=1;locked=0;connectable=1;fontSize=20;" parent="1" vertex="1">
          <mxGeometry x="-482.5" y="1569" width="105" height="50" as="geometry" />
        </mxCell>
        <mxCell id="GVLGzIOLrcj9VpgJ61Zn-3" value="가입일" style="ellipse;whiteSpace=wrap;html=1;movable=1;resizable=1;rotatable=1;deletable=1;editable=1;locked=0;connectable=1;fontSize=20;" parent="1" vertex="1">
          <mxGeometry x="-482.5" y="1630" width="105" height="50" as="geometry" />
        </mxCell>
        <mxCell id="GVLGzIOLrcj9VpgJ61Zn-4" value="포인트" style="ellipse;whiteSpace=wrap;html=1;movable=1;resizable=1;rotatable=1;deletable=1;editable=1;locked=0;connectable=1;fontSize=20;" parent="1" vertex="1">
          <mxGeometry x="-482.5" y="1690" width="105" height="50" as="geometry" />
        </mxCell>
        <mxCell id="GVLGzIOLrcj9VpgJ61Zn-6" value="" style="endArrow=classic;html=1;rounded=0;exitX=1;exitY=0;exitDx=0;exitDy=0;entryX=0.5;entryY=1;entryDx=0;entryDy=0;fontSize=20;" parent="1" source="9bXuFKs-c-cI5n4KC5Fp-67" target="9bXuFKs-c-cI5n4KC5Fp-47" edge="1">
          <mxGeometry width="50" height="50" relative="1" as="geometry">
            <mxPoint x="-659" y="1649" as="sourcePoint" />
            <mxPoint x="-700" y="1520" as="targetPoint" />
          </mxGeometry>
        </mxCell>
        <mxCell id="GVLGzIOLrcj9VpgJ61Zn-7" value="" style="endArrow=classic;html=1;rounded=0;exitX=1;exitY=0;exitDx=0;exitDy=0;entryX=0.5;entryY=1;entryDx=0;entryDy=0;fontSize=20;" parent="1" source="9bXuFKs-c-cI5n4KC5Fp-66" target="9bXuFKs-c-cI5n4KC5Fp-47" edge="1">
          <mxGeometry width="50" height="50" relative="1" as="geometry">
            <mxPoint x="-659" y="1699" as="sourcePoint" />
            <mxPoint x="-700" y="1520" as="targetPoint" />
          </mxGeometry>
        </mxCell>
        <mxCell id="9bXuFKs-c-cI5n4KC5Fp-68" value="&lt;span style=&quot;font-size: 20px;&quot;&gt;아이디&lt;/span&gt;" style="ellipse;whiteSpace=wrap;html=1;movable=1;resizable=1;rotatable=1;deletable=1;editable=1;locked=0;connectable=1;fontColor=#0000ff;fontSize=20;" parent="1" vertex="1">
          <mxGeometry x="-799.5" y="1590" width="120" height="40" as="geometry" />
        </mxCell>
        <mxCell id="GVLGzIOLrcj9VpgJ61Zn-8" value="" style="endArrow=classic;html=1;rounded=0;exitX=1;exitY=0;exitDx=0;exitDy=0;entryX=0.5;entryY=1;entryDx=0;entryDy=0;fontSize=20;" parent="1" source="9bXuFKs-c-cI5n4KC5Fp-64" target="9bXuFKs-c-cI5n4KC5Fp-47" edge="1">
          <mxGeometry width="50" height="50" relative="1" as="geometry">
            <mxPoint x="-659" y="1800" as="sourcePoint" />
            <mxPoint x="-700" y="1520" as="targetPoint" />
          </mxGeometry>
        </mxCell>
        <mxCell id="9bXuFKs-c-cI5n4KC5Fp-65" value="&lt;font style=&quot;font-size: 20px;&quot;&gt;내용&lt;/font&gt;" style="ellipse;whiteSpace=wrap;html=1;movable=1;resizable=1;rotatable=1;deletable=1;editable=1;locked=0;connectable=1;fontColor=#ffffff;fontSize=20;" parent="1" vertex="1">
          <mxGeometry x="-650" y="1741" width="120" height="40" as="geometry" />
        </mxCell>
        <mxCell id="GVLGzIOLrcj9VpgJ61Zn-9" style="edgeStyle=orthogonalEdgeStyle;rounded=0;orthogonalLoop=1;jettySize=auto;html=1;exitX=0.5;exitY=1;exitDx=0;exitDy=0;" parent="1" source="9bXuFKs-c-cI5n4KC5Fp-68" target="9bXuFKs-c-cI5n4KC5Fp-68" edge="1">
          <mxGeometry relative="1" as="geometry" />
        </mxCell>
        <mxCell id="NpZf-vr-yhSXwBBEMIkO-1" value="" style="endArrow=classic;html=1;rounded=0;exitX=1;exitY=0.5;exitDx=0;exitDy=0;entryX=0;entryY=0.5;entryDx=0;entryDy=0;" edge="1" parent="1" source="PSpn-6Nec1iFac_MyreH-26" target="GVLGzIOLrcj9VpgJ61Zn-3">
          <mxGeometry width="50" height="50" relative="1" as="geometry">
            <mxPoint x="-310" y="1380" as="sourcePoint" />
            <mxPoint x="-260" y="1330" as="targetPoint" />
          </mxGeometry>
        </mxCell>
        <mxCell id="NpZf-vr-yhSXwBBEMIkO-2" value="" style="endArrow=classic;html=1;rounded=0;exitX=1;exitY=0.5;exitDx=0;exitDy=0;entryX=0;entryY=0.5;entryDx=0;entryDy=0;" edge="1" parent="1" source="PSpn-6Nec1iFac_MyreH-26" target="GVLGzIOLrcj9VpgJ61Zn-2">
          <mxGeometry width="50" height="50" relative="1" as="geometry">
            <mxPoint x="-310" y="1380" as="sourcePoint" />
            <mxPoint x="-260" y="1330" as="targetPoint" />
          </mxGeometry>
        </mxCell>
        <mxCell id="NpZf-vr-yhSXwBBEMIkO-3" value="" style="endArrow=classic;html=1;rounded=0;exitX=1;exitY=0.5;exitDx=0;exitDy=0;entryX=0;entryY=0.5;entryDx=0;entryDy=0;" edge="1" parent="1" source="PSpn-6Nec1iFac_MyreH-26" target="GVLGzIOLrcj9VpgJ61Zn-4">
          <mxGeometry width="50" height="50" relative="1" as="geometry">
            <mxPoint x="-310" y="1380" as="sourcePoint" />
            <mxPoint x="-260" y="1330" as="targetPoint" />
          </mxGeometry>
        </mxCell>
      </root>
    </mxGraphModel>
  </diagram>
</mxfile>
